<?xml version="1.0"?>
<svg xmlns="http://www.w3.org/2000/svg" height="512px" viewBox="-9 0 468 468.95739" width="512px" class=""><g><path d="m58.179688 421.6875 110.296874-19.445312 8.335938 47.273437-110.300781 19.441406zm0 0" data-original="#000000" class="active-path" data-old_color="#001E3b" fill="#001E3b"/><path d="m3.375 176.152344c-2.453125 3.484375-3.4023438 7.808594-2.636719 12l30.078125 170.558594 36.351563 32c1.359375 1.203124 2.273437 2.832031 2.59375 4.617187l1.390625 7.878906 78.785156-13.886719-9.289062-52.648437-69.601563-82.917969c-3.660156-4.410156-9.414063-6.503906-15.054687-5.472656-.675782.105469-1.339844.277344-1.984376.511719-.253906.109375-.519531.214843-.800781.304687-1.753906.605469-3.382812 1.53125-4.796875 2.734375-6.695312 5.710938-7.546875 15.75-1.90625 22.503907l58.785156 70.046874-12.257812 10.28125-58.765625-70.113281c-11.304687-13.554687-9.542969-33.691406 3.941406-45.078125 1.152344-.949218 2.363281-1.824218 3.625-2.617187l-9.597656-54.296875c-1.121094-6.375-5.976563-11.449219-12.296875-12.851563-6.324219-1.402343-12.867188 1.144531-16.578125 6.453125zm0 0" data-original="#000000" class="active-path" data-old_color="#001E3b" fill="#001E3b"/><path d="m448.769531 176.152344c-3.710937-5.308594-10.253906-7.855469-16.578125-6.453125-6.320312 1.402343-11.175781 6.476562-12.292968 12.851562l-9.601563 54.296875c1.230469.773438 2.410156 1.625 3.527344 2.550782 13.539062 11.382812 15.324219 31.570312 4 45.152343l-58.792969 70.058594-12.160156-10.28125 58.785156-70.054687c5.65625-6.792969 4.765625-16.875-1.992188-22.570313-1.394531-1.171875-2.996093-2.074219-4.71875-2.664063-.273437-.085937-.535156-.191406-.800781-.304687-.648437-.234375-1.316406-.40625-2-.511719-5.632812-1.019531-11.378906 1.070313-15.039062 5.472656l-69.601563 82.921876-9.289062 52.648437 78.785156 13.886719 1.394531-7.878906c.316407-1.789063 1.230469-3.414063 2.589844-4.617188l36.351563-32 30.082031-170.558594c.746093-4.175781-.207031-8.476562-2.648438-11.945312zm0 0" data-original="#000000" class="active-path" data-old_color="#001E3b" fill="#001E3b"/><path d="m275.339844 449.511719 8.332031-47.273438 110.300781 19.445313-8.335937 47.269531zm0 0" data-original="#000000" class="active-path" data-old_color="#001E3b" fill="#001E3b"/><path d="m199.730469 221.65625-12.503907 12.503906 4.613282 13.839844h14.921875l11.3125-11.3125v-169.375l-11.3125-11.3125h-14.921875l-4.613282 13.839844 12.503907 12.503906c1.5 1.5 2.34375 3.535156 2.34375 5.65625v8h-16v-4.6875l-11.3125-11.3125h-17.378907l-11.308593 11.3125v25.375l13.65625 13.65625c1.5 1.5 2.34375 3.535156 2.34375 5.65625v8h-16v-4.6875l-6.761719-6.753906-9.238281 13.839844v34.265624l8 8v-12.664062h16v41.753906l21.542969 5.390625 10.457031-10.457031v-4.6875h16v8c0 2.121094-.84375 4.15625-2.34375 5.65625zm-13.65625-34.34375v12.6875h-16v-16c0-2.121094.84375-4.15625 2.34375-5.65625l8-8 11.3125 11.3125zm13.65625-45.65625-16 16-11.3125-11.3125 13.65625-13.65625v-20.6875h16v24c0 2.121094-.84375 4.15625-2.34375 5.65625zm0 0" data-original="#000000" class="active-path" data-old_color="#001E3b" fill="#001E3b"/><path d="m322.074219 180.6875v-34.289062l-9.242188-13.839844-6.757812 6.753906v4.6875h-16v-8c0-2.121094.84375-4.15625 2.34375-5.65625l13.65625-13.65625v-25.375l-11.3125-11.3125h-17.378907l-11.308593 11.3125v4.6875h-16v-8c0-2.121094.84375-4.15625 2.34375-5.65625l12.503906-12.503906-4.617187-13.839844h-14.921876l-11.308593 11.3125v169.375l11.308593 11.3125h14.921876l4.617187-13.839844-12.503906-12.503906c-1.5-1.5-2.34375-3.535156-2.34375-5.65625v-8h16v4.6875l10.453125 10.457031 21.546875-5.390625v-41.753906h16v12.6875zm-72-44.6875v-24h16v20.6875l13.65625 13.65625-11.3125 11.3125-16-16c-1.5-1.5-2.34375-3.535156-2.34375-5.65625zm32 64h-16v-12.6875l-5.65625-5.65625 11.3125-11.3125 8 8c1.5 1.5 2.34375 3.535156 2.34375 5.65625zm0 0" data-original="#000000" class="active-path" data-old_color="#001E3b" fill="#001E3b"/><path d="m218.074219 0h16v16h-16zm0 0" data-original="#000000" class="active-path" data-old_color="#001E3b" fill="#001E3b"/><path d="m179 7.25 15.453125-4.140625 4.140625 15.457031-15.453125 4.140625zm0 0" data-original="#000000" class="active-path" data-old_color="#001E3b" fill="#001E3b"/><path d="m143.144531 24.363281 13.855469-8 8 13.855469-13.855469 8zm0 0" data-original="#000000" class="active-path" data-old_color="#001E3b" fill="#001E3b"/><path d="m112.929688 50.175781 11.316406-11.316406 11.3125 11.316406-11.3125 11.3125zm0 0" data-original="#000000" class="active-path" data-old_color="#001E3b" fill="#001E3b"/><path d="m90.433594 82.929688 8-13.855469 13.855468 8-8 13.855469zm0 0" data-original="#000000" class="active-path" data-old_color="#001E3b" fill="#001E3b"/><path d="m77.179688 120.386719 4.144531-15.453125 15.453125 4.140625-4.140625 15.453125zm0 0" data-original="#000000" class="active-path" data-old_color="#001E3b" fill="#001E3b"/><path d="m74.074219 144h16v16h-16zm0 0" data-original="#000000" class="active-path" data-old_color="#001E3b" fill="#001E3b"/><path d="m77.179688 183.613281 15.453124-4.144531 4.144532 15.457031-15.457032 4.140625zm0 0" data-original="#000000" class="active-path" data-old_color="#001E3b" fill="#001E3b"/><path d="m90.429688 221.070312 13.859374-8 7.996094 13.855469-13.855468 8zm0 0" data-original="#000000" class="active-path" data-old_color="#001E3b" fill="#001E3b"/><path d="m112.933594 253.824219 11.3125-11.3125 11.3125 11.3125-11.3125 11.3125zm0 0" data-original="#000000" class="active-path" data-old_color="#001E3b" fill="#001E3b"/><path d="m143.136719 279.636719 8-13.855469 13.855469 8-8 13.855469zm0 0" data-original="#000000" class="active-path" data-old_color="#001E3b" fill="#001E3b"/><path d="m179.003906 296.753906 4.144532-15.457031 15.453124 4.140625-4.140624 15.457031zm0 0" data-original="#000000" class="active-path" data-old_color="#001E3b" fill="#001E3b"/><path d="m218.074219 288h16v16h-16zm0 0" data-original="#000000" class="active-path" data-old_color="#001E3b" fill="#001E3b"/><path d="m253.546875 285.4375 15.457031-4.140625 4.140625 15.457031-15.457031 4.140625zm0 0" data-original="#000000" class="active-path" data-old_color="#001E3b" fill="#001E3b"/><path d="m287.144531 273.785156 13.855469-8 8 13.855469-13.855469 8zm0 0" data-original="#000000" class="active-path" data-old_color="#001E3b" fill="#001E3b"/><path d="m316.582031 253.824219 11.3125-11.316407 11.3125 11.316407-11.3125 11.3125zm0 0" data-original="#000000" class="active-path" data-old_color="#001E3b" fill="#001E3b"/><path d="m339.855469 226.929688 8-13.855469 13.855469 8-8 13.855469zm0 0" data-original="#000000" class="active-path" data-old_color="#001E3b" fill="#001E3b"/><path d="m355.371094 194.925781 4.140625-15.453125 15.453125 4.140625-4.140625 15.457031zm0 0" data-original="#000000" class="active-path" data-old_color="#001E3b" fill="#001E3b"/><path d="m362.074219 144h16v16h-16zm0 0" data-original="#000000" class="active-path" data-old_color="#001E3b" fill="#001E3b"/><path d="m355.367188 109.070312 15.453124-4.140624 4.144532 15.453124-15.457032 4.140626zm0 0" data-original="#000000" class="active-path" data-old_color="#001E3b" fill="#001E3b"/><path d="m339.851562 77.070312 13.859376-8 7.996093 13.859376-13.855469 7.996093zm0 0" data-original="#000000" class="active-path" data-old_color="#001E3b" fill="#001E3b"/><path d="m316.582031 50.171875 11.3125-11.3125 11.3125 11.3125-11.3125 11.316406zm0 0" data-original="#000000" class="active-path" data-old_color="#001E3b" fill="#001E3b"/><path d="m287.144531 30.21875 8-13.855469 13.859375 7.996094-8 13.859375zm0 0" data-original="#000000" class="active-path" data-old_color="#001E3b" fill="#001E3b"/><path d="m253.546875 18.5625 4.140625-15.453125 15.453125 4.140625-4.140625 15.453125zm0 0" data-original="#000000" class="active-path" data-old_color="#001E3b" fill="#001E3b"/></g> </svg>
